<svg width="86" height="30" viewBox="0 0 86 30" fill="none" xmlns="http://www.w3.org/2000/svg">
<path d="M1.728 24V7.128H4.992V24H1.728ZM12.312 24V7.128H15.576V24H12.312ZM3.792 16.728V13.848H13.224V16.728H3.792ZM23.5369 24.24C22.4809 24.24 21.5289 23.976 20.6809 23.448C19.8329 22.92 19.1689 22.2 18.6889 21.288C18.2089 20.376 17.9689 19.352 17.9689 18.216C17.9689 17.064 18.2089 16.032 18.6889 15.12C19.1689 14.208 19.8329 13.488 20.6809 12.96C21.5289 12.432 22.4809 12.168 23.5369 12.168C24.3689 12.168 25.1129 12.336 25.7689 12.672C26.4249 13.008 26.9449 13.48 27.3289 14.088C27.7289 14.68 27.9449 15.352 27.9769 16.104V20.28C27.9449 21.048 27.7289 21.728 27.3289 22.32C26.9449 22.912 26.4249 23.384 25.7689 23.736C25.1129 24.072 24.3689 24.24 23.5369 24.24ZM24.1129 21.336C24.9929 21.336 25.7049 21.048 26.2489 20.472C26.7929 19.88 27.0649 19.12 27.0649 18.192C27.0649 17.584 26.9369 17.048 26.6809 16.584C26.4409 16.104 26.0969 15.736 25.6489 15.48C25.2169 15.208 24.7049 15.072 24.1129 15.072C23.5369 15.072 23.0249 15.208 22.5769 15.48C22.1449 15.736 21.8009 16.104 21.5449 16.584C21.3049 17.048 21.1849 17.584 21.1849 18.192C21.1849 18.816 21.3049 19.368 21.5449 19.848C21.8009 20.312 22.1449 20.68 22.5769 20.952C23.0249 21.208 23.5369 21.336 24.1129 21.336ZM26.8969 24V20.88L27.4009 18.048L26.8969 15.264V12.408H30.0169V24H26.8969ZM32.7983 24V12.408H35.9423V24H32.7983ZM40.3583 24V17.16C40.3583 16.488 40.1423 15.968 39.7103 15.6C39.2943 15.216 38.7743 15.024 38.1503 15.024C37.7343 15.024 37.3583 15.112 37.0223 15.288C36.6863 15.448 36.4223 15.688 36.2303 16.008C36.0383 16.328 35.9423 16.712 35.9423 17.16L34.7183 16.56C34.7183 15.664 34.9103 14.888 35.2943 14.232C35.6943 13.576 36.2303 13.072 36.9023 12.72C37.5743 12.352 38.3343 12.168 39.1823 12.168C39.9823 12.168 40.7103 12.352 41.3663 12.72C42.0223 13.072 42.5423 13.576 42.9263 14.232C43.3103 14.872 43.5023 15.648 43.5023 16.56V24H40.3583ZM47.9183 24V17.16C47.9183 16.488 47.7023 15.968 47.2703 15.6C46.8543 15.216 46.3343 15.024 45.7103 15.024C45.3103 15.024 44.9343 15.112 44.5823 15.288C44.2463 15.448 43.9823 15.688 43.7903 16.008C43.5983 16.328 43.5023 16.712 43.5023 17.16L41.7023 16.728C41.7663 15.8 42.0143 15 42.4463 14.328C42.8783 13.64 43.4463 13.112 44.1503 12.744C44.8543 12.36 45.6383 12.168 46.5023 12.168C47.3663 12.168 48.1423 12.352 48.8303 12.72C49.5183 13.072 50.0623 13.584 50.4623 14.256C50.8623 14.928 51.0623 15.728 51.0623 16.656V24H47.9183ZM53.6108 24V12.408H56.7788V24H53.6108ZM55.1948 10.536C54.6828 10.536 54.2588 10.368 53.9228 10.032C53.5868 9.68 53.4188 9.248 53.4188 8.736C53.4188 8.24 53.5868 7.816 53.9228 7.464C54.2588 7.112 54.6828 6.936 55.1948 6.936C55.7228 6.936 56.1468 7.112 56.4668 7.464C56.8028 7.816 56.9708 8.24 56.9708 8.736C56.9708 9.248 56.8028 9.68 56.4668 10.032C56.1468 10.368 55.7228 10.536 55.1948 10.536ZM59.5639 24V12.408H62.7319V24H59.5639ZM61.1479 10.536C60.6359 10.536 60.2119 10.368 59.8759 10.032C59.5399 9.68 59.3719 9.248 59.3719 8.736C59.3719 8.24 59.5399 7.816 59.8759 7.464C60.2119 7.112 60.6359 6.936 61.1479 6.936C61.6759 6.936 62.0999 7.112 62.4199 7.464C62.7559 7.816 62.9239 8.24 62.9239 8.736C62.9239 9.248 62.7559 9.68 62.4199 10.032C62.0999 10.368 61.6759 10.536 61.1479 10.536ZM70.413 24.24C69.341 24.24 68.381 23.976 67.533 23.448C66.685 22.92 66.013 22.2 65.517 21.288C65.037 20.376 64.797 19.352 64.797 18.216C64.797 17.064 65.037 16.032 65.517 15.12C66.013 14.208 66.677 13.488 67.509 12.96C68.357 12.432 69.325 12.168 70.413 12.168C71.245 12.168 71.989 12.336 72.645 12.672C73.317 13.008 73.853 13.48 74.253 14.088C74.669 14.68 74.893 15.352 74.925 16.104V20.232C74.893 20.984 74.677 21.664 74.277 22.272C73.877 22.88 73.341 23.36 72.669 23.712C71.997 24.064 71.245 24.24 70.413 24.24ZM70.941 21.336C71.533 21.336 72.045 21.208 72.477 20.952C72.925 20.68 73.269 20.312 73.509 19.848C73.765 19.368 73.893 18.816 73.893 18.192C73.893 17.584 73.765 17.048 73.509 16.584C73.269 16.104 72.925 15.736 72.477 15.48C72.045 15.208 71.541 15.072 70.965 15.072C70.373 15.072 69.853 15.208 69.405 15.48C68.973 15.752 68.629 16.12 68.373 16.584C68.133 17.048 68.013 17.584 68.013 18.192C68.013 18.816 68.133 19.368 68.373 19.848C68.629 20.312 68.981 20.68 69.429 20.952C69.877 21.208 70.381 21.336 70.941 21.336ZM76.845 24H73.725V20.88L74.229 18.048L73.701 15.264V6.648H76.845V24Z" fill="#FDC500"/>
<circle cx="83" cy="21" r="3" fill="#FDC500"/>
</svg>
