<svg width="74" height="56" viewBox="0 0 74 56" fill="none" xmlns="http://www.w3.org/2000/svg">
<mask id="mask0_230_90" style="mask-type:luminance" maskUnits="userSpaceOnUse" x="0" y="0" width="74" height="56">
<path d="M0.625 0.650269H73.3732V55.5784H0.625V0.650269Z" fill="white"/>
</mask>
<g mask="url(#mask0_230_90)">
<mask id="mask1_230_90" style="mask-type:luminance" maskUnits="userSpaceOnUse" x="6" y="5" width="62" height="47">
<path fill-rule="evenodd" clip-rule="evenodd" d="M46.3331 17.9434L46.2851 18.3403H60.3426L60.295 17.9434C59.8705 14.4287 56.8725 11.7683 53.3309 11.7597L53.3136 11.76L53.2962 11.7597C49.7546 11.7683 46.7572 14.4287 46.3331 17.9434ZM61.2063 18.3408C60.6971 14.4167 57.8095 11.1026 53.7637 10.8724V10.3082C53.7637 10.0595 53.5625 9.85811 53.3136 9.85811C53.0648 9.85811 52.8634 10.0595 52.8634 10.3082V10.8724C48.8475 11.0982 45.6203 14.3251 45.3945 18.3408H44.1075C43.859 18.3408 43.6574 18.542 43.6574 18.7907C43.6574 19.0395 43.8585 19.2411 44.1075 19.2411H62.5191C62.7681 19.2411 62.9692 19.0397 62.9692 18.7907C62.9692 18.542 62.7676 18.3408 62.5191 18.3408H61.2063ZM57.2106 15.764C57.3217 15.764 57.4269 15.7234 57.5101 15.6494C57.6949 15.4845 57.7108 15.1986 57.5458 15.014C56.4704 13.8101 54.9274 13.1188 53.3131 13.1188C53.0646 13.1188 52.8629 13.3203 52.8629 13.5691C52.8629 13.8181 53.0646 14.0192 53.3131 14.0192C54.6715 14.0192 55.9695 14.6005 56.8745 15.6136C56.9601 15.71 57.0812 15.764 57.2106 15.764ZM62.5191 21.9424C62.7681 21.9424 62.9692 21.7413 62.9692 21.4924C62.9692 21.2436 62.7676 21.0422 62.5191 21.0422H44.1075C43.8585 21.0422 43.6574 21.2436 43.6574 21.4924C43.6574 21.7411 43.859 21.9424 44.1075 21.9424H62.5191ZM18.1997 37.8631C20.4833 37.8631 22.3411 39.7207 22.3411 42.0046C22.3411 44.2887 20.4833 46.1462 18.1997 46.1462C15.9157 46.1462 14.0578 44.2887 14.0578 42.0046C14.0578 39.7207 15.9157 37.8631 18.1997 37.8631ZM18.1997 47.047C15.4196 47.047 13.1572 44.7845 13.1572 42.0046C13.1572 39.2243 15.4196 36.9624 18.1997 36.9624C20.9796 36.9624 23.2418 39.2243 23.2418 42.0046C23.2418 44.785 20.9798 47.047 18.1997 47.047ZM18.1997 51.018C13.2298 51.018 9.18643 46.9752 9.18643 42.005C9.18643 37.0351 13.2298 32.9923 18.1997 32.9923C23.1691 32.9923 27.2129 37.0351 27.2129 42.005C27.2129 46.9752 23.1691 51.018 18.1997 51.018ZM60.4437 43.4702H40.8227C40.4029 43.4702 40.0542 43.1485 40.0201 42.73C39.9969 42.4469 39.9859 42.1584 39.9859 41.8733C39.9859 36.003 44.762 31.2264 50.6327 31.2264C56.5036 31.2264 61.2792 36.003 61.2792 41.8733C61.2792 42.152 61.2682 42.4401 61.2456 42.7286C61.2124 43.1475 60.8633 43.4702 60.4437 43.4702ZM50.6332 51.018C46.4586 51.018 43.0112 48.2717 41.9388 44.2972H59.3275C58.2547 48.2717 54.8066 51.018 50.6332 51.018ZM26.6116 10.0849L30.4605 7.12403C30.8126 6.85331 31.3181 6.91844 31.5891 7.27097C31.8603 7.62294 31.7941 8.12833 31.4421 8.39953L27.6901 11.2859V17.506C27.6901 17.951 27.3298 18.3111 26.8852 18.3111H17.8518C17.407 18.3111 17.0472 17.9507 17.0472 17.5064V10.8895C17.0472 10.4452 17.407 10.0849 17.8518 10.0849H26.6116ZM16.2199 17.2592H15.8593C14.3172 17.2592 13.0625 16.0044 13.0625 14.4625V13.9338C13.0625 12.3915 14.3175 11.1368 15.8593 11.1368H16.2199V17.2592ZM29.9216 32.8903H33.1363C33.5806 32.8903 33.9407 33.2504 33.9407 33.6954V35.0436H30.2396L29.9216 32.8903ZM66.442 35.6275C66.8863 35.6275 67.2467 35.2672 67.2467 34.8224C67.2467 34.3782 66.8863 34.0178 66.442 34.0178H62.6883L60.5514 27.2681H41.6305C41.0678 27.2681 40.5715 26.9834 40.2783 26.5501L36.1596 35.8712L29.5256 35.8707L27.6901 23.4372V18.9259C27.4526 19.0612 27.178 19.1381 26.8852 19.1381H20.2187L20.2185 23.0722L11.491 29.0538C11.3905 29.1227 11.3071 29.213 11.247 29.3186L6.88832 36.9624C6.76378 37.1811 6.74834 37.4452 6.8476 37.6769C6.94696 37.9088 7.14845 38.0799 7.39276 38.1414L8.98952 38.54C10.3939 34.8185 13.9919 32.165 18.1997 32.165C23.6258 32.165 28.0402 36.5786 28.0402 42.005C28.0402 42.4376 28.0119 42.8638 27.9574 43.2818L28.6157 43.4461C28.68 43.4619 28.7456 43.4702 28.8113 43.4702H39.4027C39.2887 43.2691 39.2155 43.0413 39.1959 42.797C39.1708 42.4901 39.1588 42.1813 39.1588 41.8733C39.1588 35.5463 44.3057 30.3993 50.6327 30.3993C56.9601 30.3993 62.1065 35.5457 62.1065 41.8733C62.1065 42.1803 62.0943 42.4876 62.0699 42.794C62.0507 43.0394 61.9777 43.268 61.8632 43.4702H64.5821C64.8384 43.4702 65.0797 43.3479 65.2317 43.1411C65.3826 42.9344 65.427 42.6681 65.3496 42.4232L63.198 35.6275H66.442ZM64.9971 26.441H41.6305C41.1862 26.441 40.8261 26.0808 40.8261 25.6364V6.16416C40.8261 5.71989 41.1862 5.35925 41.6305 5.35925H64.9971C65.4414 5.35925 65.8014 5.71989 65.8014 6.16416V25.6364C65.8014 26.0808 65.4414 26.441 64.9971 26.441Z" fill="white"/>
</mask>
<g mask="url(#mask1_230_90)">
<path d="M6.74854 5.35925V51.018H67.2469V5.35925H6.74854Z" fill="#E37C1C"/>
</g>
</g>
</svg>
