<svg width="78" height="29" viewBox="0 0 78 29" fill="none" xmlns="http://www.w3.org/2000/svg">
<path d="M0.515977 4.52224H7.26826V21.5787H0.515977V4.52224ZM9.35168 9.166C9.35168 7.31687 9.82024 6.07434 10.7574 5.43844C11.6443 4.84437 13.3135 4.54734 15.7651 4.54734H17.0327V6.91943C17.0327 8.8104 16.5516 10.1575 15.5894 10.9608C14.6104 11.764 12.9244 12.1656 10.5314 12.1656H9.35168V9.166ZM9.35168 13.4709H10.5314C12.891 13.4709 14.577 13.9395 15.5894 14.8766C16.5516 15.7719 17.0327 17.1859 17.0327 19.1187V21.6038H15.7651C13.3637 21.6038 11.6945 21.244 10.7574 20.5244C9.82024 19.7965 9.35168 18.4912 9.35168 16.6086V13.4709ZM29.0814 8.80203H29.9097C33.0725 8.80203 35.0012 9.87303 35.6956 12.015C35.9215 12.7262 36.0345 13.5504 36.0345 14.4875V15.8681H29.0814V8.80203ZM20.0198 15.3535C20.0198 14.4331 20.1411 13.5797 20.3838 12.7932C20.6264 11.9983 21.0029 11.3038 21.5133 10.7097C22.6178 9.43794 24.1992 8.80203 26.2575 8.80203H27.2239V21.6038H26.5713C24.4627 21.6038 22.8311 21.0264 21.6765 19.8718C20.572 18.7673 20.0198 17.2612 20.0198 15.3535ZM29.0814 18.328H35.3568V18.6794C35.3568 19.4576 35.0765 20.1144 34.5159 20.6499C33.8298 21.2858 32.855 21.6038 31.5915 21.6038H29.0814V18.328ZM48.3342 8.80203H49.4638C52.5429 8.80203 54.3795 9.84793 54.9735 11.9397C55.1743 12.6174 55.2747 13.3998 55.2747 14.2867V21.6038H48.3342V8.80203ZM39.2851 8.80203H46.2633V21.6038H39.2851V8.80203ZM62.4412 5.36314C59.6717 5.36314 58.2869 4.49714 58.2869 2.76514C58.2869 1.87822 58.6174 1.24232 59.2784 0.857432C59.9394 0.464176 60.9477 0.267548 62.3031 0.267548C63.6586 0.267548 64.6585 0.464176 65.3028 0.857432C65.947 1.24232 66.2692 1.88241 66.2692 2.77769C66.2692 3.66461 65.9679 4.31724 65.3655 4.7356C64.7714 5.15396 63.7967 5.36314 62.4412 5.36314ZM58.9897 8.80203H65.742V22.0681C65.742 24.093 65.3237 25.6158 64.487 26.6366C63.5331 27.7996 62.0228 28.3811 59.9561 28.3811H58.9897V8.80203ZM73.1846 5.36314C70.4151 5.36314 69.0303 4.49714 69.0303 2.76514C69.0303 1.87822 69.3608 1.24232 70.0218 0.857432C70.6828 0.464176 71.6911 0.267548 73.0465 0.267548C74.402 0.267548 75.4019 0.464176 76.0462 0.857432C76.6904 1.24232 77.0126 1.88241 77.0126 2.77769C77.0126 3.66461 76.7113 4.31724 76.1089 4.7356C75.5148 5.15396 74.5401 5.36314 73.1846 5.36314ZM69.7332 8.81458H76.4854V21.6038H69.7332V8.81458Z" fill="#041727"/>
</svg>
