<svg width="150" height="150" viewBox="0 0 150 150" fill="none" xmlns="http://www.w3.org/2000/svg">
<rect width="150" height="150" rx="30" fill="white"/>
<path d="M17.0665 66.1972H27.2663V91.9621H17.0665V66.1972ZM30.4134 73.2119C30.4134 70.4187 31.1212 68.5418 32.5368 67.5812C33.8765 66.6838 36.398 66.2352 40.1013 66.2352H42.0161V69.8183C42.0161 72.6748 41.2894 74.7097 39.8359 75.923C38.3571 77.1364 35.8103 77.7431 32.1955 77.7431H30.4134V73.2119ZM30.4134 79.7148H32.1955C35.7598 79.7148 38.3065 80.4226 39.8359 81.8381C41.2894 83.1905 42.0161 85.3265 42.0161 88.2462V92H40.1013C36.4739 92 33.9524 91.4565 32.5368 90.3696C31.1212 89.27 30.4134 87.2982 30.4134 84.4544V79.7148ZM60.2165 72.6621H61.4677C66.2453 72.6621 69.1586 74.28 70.2077 77.5156C70.5489 78.5899 70.7196 79.8348 70.7196 81.2504V83.3359H60.2165V72.6621ZM46.5283 82.5586C46.5283 81.1683 46.7116 79.8791 47.0781 78.691C47.4446 77.4903 48.0134 76.4412 48.7844 75.5439C50.4527 73.6227 52.8415 72.6621 55.9507 72.6621H57.4106V92H56.4247C53.2397 92 50.775 91.1279 49.0308 89.3837C47.3625 87.7153 46.5283 85.4403 46.5283 82.5586ZM60.2165 87.0518H69.6958V87.5826C69.6958 88.7581 69.2724 89.7502 68.4256 90.5591C67.3892 91.5197 65.9167 92 64.0082 92H60.2165V87.0518ZM89.2991 72.6621H91.0053C95.6565 72.6621 98.4308 74.242 99.3282 77.4018C99.6315 78.4256 99.7832 79.6073 99.7832 80.9471V92H89.2991V72.6621ZM75.6299 72.6621H86.1709V92H75.6299V72.6621ZM110.609 67.4675C106.425 67.4675 104.333 66.1593 104.333 63.543C104.333 62.2033 104.833 61.2427 105.831 60.6613C106.83 60.0673 108.353 59.7702 110.4 59.7702C112.448 59.7702 113.958 60.0673 114.931 60.6613C115.904 61.2427 116.391 62.2096 116.391 63.562C116.391 64.9017 115.936 65.8876 115.026 66.5195C114.129 67.1515 112.656 67.4675 110.609 67.4675ZM105.395 72.6621H115.595V92.7015C115.595 95.7601 114.963 98.0605 113.699 99.6024C112.258 101.359 109.977 102.238 106.855 102.238H105.395V72.6621ZM126.837 67.4675C122.654 67.4675 120.562 66.1593 120.562 63.543C120.562 62.2033 121.061 61.2427 122.06 60.6613C123.058 60.0673 124.581 59.7702 126.629 59.7702C128.676 59.7702 130.187 60.0673 131.16 60.6613C132.133 61.2427 132.62 62.2096 132.62 63.562C132.62 64.9017 132.165 65.8876 131.255 66.5195C130.357 67.1515 128.885 67.4675 126.837 67.4675ZM121.624 72.6811H131.823V92H121.624V72.6811Z" fill="#041727"/>
</svg>
