<svg width="133" height="45" viewBox="0 0 133 45" fill="none" xmlns="http://www.w3.org/2000/svg">
<path d="M2.592 36V10.692H7.488V36H2.592ZM18.468 36V10.692H23.364V36H18.468ZM5.688 25.092V20.772H19.836V25.092H5.688ZM35.3053 36.36C33.7213 36.36 32.2933 35.964 31.0213 35.172C29.7493 34.38 28.7533 33.3 28.0333 31.932C27.3133 30.564 26.9533 29.028 26.9533 27.324C26.9533 25.596 27.3133 24.048 28.0333 22.68C28.7533 21.312 29.7493 20.232 31.0213 19.44C32.2933 18.648 33.7213 18.252 35.3053 18.252C36.5533 18.252 37.6693 18.504 38.6533 19.008C39.6373 19.512 40.4173 20.22 40.9933 21.132C41.5933 22.02 41.9173 23.028 41.9653 24.156V30.42C41.9173 31.572 41.5933 32.592 40.9933 33.48C40.4173 34.368 39.6373 35.076 38.6533 35.604C37.6693 36.108 36.5533 36.36 35.3053 36.36ZM36.1693 32.004C37.4893 32.004 38.5573 31.572 39.3733 30.708C40.1893 29.82 40.5973 28.68 40.5973 27.288C40.5973 26.376 40.4053 25.572 40.0213 24.876C39.6613 24.156 39.1453 23.604 38.4733 23.22C37.8253 22.812 37.0573 22.608 36.1693 22.608C35.3053 22.608 34.5373 22.812 33.8653 23.22C33.2173 23.604 32.7013 24.156 32.3173 24.876C31.9573 25.572 31.7773 26.376 31.7773 27.288C31.7773 28.224 31.9573 29.052 32.3173 29.772C32.7013 30.468 33.2173 31.02 33.8653 31.428C34.5373 31.812 35.3053 32.004 36.1693 32.004ZM40.3453 36V31.32L41.1013 27.072L40.3453 22.896V18.612H45.0253V36H40.3453ZM49.1974 36V18.612H53.9134V36H49.1974ZM60.5374 36V25.74C60.5374 24.732 60.2134 23.952 59.5654 23.4C58.9414 22.824 58.1614 22.536 57.2254 22.536C56.6014 22.536 56.0374 22.668 55.5334 22.932C55.0294 23.172 54.6334 23.532 54.3454 24.012C54.0574 24.492 53.9134 25.068 53.9134 25.74L52.0774 24.84C52.0774 23.496 52.3654 22.332 52.9414 21.348C53.5414 20.364 54.3454 19.608 55.3534 19.08C56.3614 18.528 57.5014 18.252 58.7734 18.252C59.9734 18.252 61.0654 18.528 62.0494 19.08C63.0334 19.608 63.8134 20.364 64.3894 21.348C64.9654 22.308 65.2534 23.472 65.2534 24.84V36H60.5374ZM71.8774 36V25.74C71.8774 24.732 71.5534 23.952 70.9054 23.4C70.2814 22.824 69.5014 22.536 68.5654 22.536C67.9654 22.536 67.4014 22.668 66.8734 22.932C66.3694 23.172 65.9734 23.532 65.6854 24.012C65.3974 24.492 65.2534 25.068 65.2534 25.74L62.5534 25.092C62.6494 23.7 63.0214 22.5 63.6694 21.492C64.3174 20.46 65.1694 19.668 66.2254 19.116C67.2814 18.54 68.4574 18.252 69.7534 18.252C71.0494 18.252 72.2134 18.528 73.2454 19.08C74.2774 19.608 75.0934 20.376 75.6934 21.384C76.2934 22.392 76.5934 23.592 76.5934 24.984V36H71.8774ZM80.4161 36V18.612H85.1681V36H80.4161ZM82.7921 15.804C82.0241 15.804 81.3881 15.552 80.8841 15.048C80.3801 14.52 80.1281 13.872 80.1281 13.104C80.1281 12.36 80.3801 11.724 80.8841 11.196C81.3881 10.668 82.0241 10.404 82.7921 10.404C83.5841 10.404 84.2201 10.668 84.7001 11.196C85.2041 11.724 85.4561 12.36 85.4561 13.104C85.4561 13.872 85.2041 14.52 84.7001 15.048C84.2201 15.552 83.5841 15.804 82.7921 15.804ZM89.3458 36V18.612H94.0978V36H89.3458ZM91.7218 15.804C90.9538 15.804 90.3178 15.552 89.8138 15.048C89.3098 14.52 89.0578 13.872 89.0578 13.104C89.0578 12.36 89.3098 11.724 89.8138 11.196C90.3178 10.668 90.9538 10.404 91.7218 10.404C92.5138 10.404 93.1498 10.668 93.6298 11.196C94.1338 11.724 94.3858 12.36 94.3858 13.104C94.3858 13.872 94.1338 14.52 93.6298 15.048C93.1498 15.552 92.5138 15.804 91.7218 15.804ZM105.62 36.36C104.012 36.36 102.572 35.964 101.3 35.172C100.028 34.38 99.0195 33.3 98.2755 31.932C97.5555 30.564 97.1955 29.028 97.1955 27.324C97.1955 25.596 97.5555 24.048 98.2755 22.68C99.0195 21.312 100.016 20.232 101.264 19.44C102.536 18.648 103.988 18.252 105.62 18.252C106.868 18.252 107.984 18.504 108.968 19.008C109.976 19.512 110.78 20.22 111.38 21.132C112.004 22.02 112.34 23.028 112.388 24.156V30.348C112.34 31.476 112.016 32.496 111.416 33.408C110.816 34.32 110.012 35.04 109.004 35.568C107.996 36.096 106.868 36.36 105.62 36.36ZM106.412 32.004C107.3 32.004 108.068 31.812 108.716 31.428C109.388 31.02 109.904 30.468 110.264 29.772C110.648 29.052 110.84 28.224 110.84 27.288C110.84 26.376 110.648 25.572 110.264 24.876C109.904 24.156 109.388 23.604 108.716 23.22C108.068 22.812 107.312 22.608 106.448 22.608C105.56 22.608 104.78 22.812 104.108 23.22C103.46 23.628 102.944 24.18 102.56 24.876C102.2 25.572 102.02 26.376 102.02 27.288C102.02 28.224 102.2 29.052 102.56 29.772C102.944 30.468 103.472 31.02 104.144 31.428C104.816 31.812 105.572 32.004 106.412 32.004ZM115.268 36H110.588V31.32L111.344 27.072L110.552 22.896V9.972H115.268V36Z" fill="white"/>
<circle cx="128" cy="31" r="5" fill="white"/>
</svg>
